<?xml version="1.0" encoding="UTF-8" standalone="no"?>
<!DOCTYPE svg PUBLIC "-//W3C//DTD SVG 1.1//EN"
 "http://www.w3.org/Graphics/SVG/1.1/DTD/svg11.dtd">
<!-- Generated by graphviz version 2.38.0 (20140413.2041)
 -->
<!-- Title: G Pages: 1 -->
<svg width="436pt" height="1358pt"
 viewBox="0.00 0.00 435.92 1357.60" xmlns="http://www.w3.org/2000/svg" xmlns:xlink="http://www.w3.org/1999/xlink">
<g id="graph0" class="graph" transform="scale(1 1) rotate(0) translate(4 1353.6)">
<title>G</title>
<polygon fill="white" stroke="none" points="-4,4 -4,-1353.6 431.921,-1353.6 431.921,4 -4,4"/>
<!-- 4631362976 -->
<g id="node1" class="node"><title>4631362976</title>
<polygon fill="#D77600" stroke="black" points="45.1206,-1299.5 45.1206,-1349.1 382.8,-1349.1 382.8,-1299.5 45.1206,-1299.5"/>
<text text-anchor="middle" x="109.303" y="-1320.1" font-family="Times,serif" font-size="14.00">input_1: InputLayer</text>
<polyline fill="none" stroke="black" points="173.486,-1299.5 173.486,-1349.1 "/>
<text text-anchor="middle" x="201.322" y="-1332.5" font-family="Times,serif" font-size="14.00">input:</text>
<polyline fill="none" stroke="black" points="173.486,-1324.3 229.158,-1324.3 "/>
<text text-anchor="middle" x="201.322" y="-1307.7" font-family="Times,serif" font-size="14.00">output:</text>
<polyline fill="none" stroke="black" points="229.158,-1299.5 229.158,-1349.1 "/>
<text text-anchor="middle" x="305.979" y="-1332.5" font-family="Times,serif" font-size="14.00">(None, 1, 3, 9600, 3600)</text>
<polyline fill="none" stroke="black" points="229.158,-1324.3 382.8,-1324.3 "/>
<text text-anchor="middle" x="305.979" y="-1307.7" font-family="Times,serif" font-size="14.00">(None, 1, 3, 9600, 3600)</text>
</g>
<!-- 4527560968 -->
<g id="node2" class="node"><title>4527560968</title>
<polygon fill="#F4AA00" stroke="black" points="42.7791,-1212.9 42.7791,-1262.5 385.142,-1262.5 385.142,-1212.9 42.7791,-1212.9"/>
<text text-anchor="middle" x="105.803" y="-1233.5" font-family="Times,serif" font-size="14.00">conv3d_1: Conv3D</text>
<polyline fill="none" stroke="black" points="168.827,-1212.9 168.827,-1262.5 "/>
<text text-anchor="middle" x="196.663" y="-1245.9" font-family="Times,serif" font-size="14.00">input:</text>
<polyline fill="none" stroke="black" points="168.827,-1237.7 224.499,-1237.7 "/>
<text text-anchor="middle" x="196.663" y="-1221.1" font-family="Times,serif" font-size="14.00">output:</text>
<polyline fill="none" stroke="black" points="224.499,-1212.9 224.499,-1262.5 "/>
<text text-anchor="middle" x="304.821" y="-1245.9" font-family="Times,serif" font-size="14.00">(None, 1, 3, 9600, 3600)</text>
<polyline fill="none" stroke="black" points="224.499,-1237.7 385.142,-1237.7 "/>
<text text-anchor="middle" x="304.821" y="-1221.1" font-family="Times,serif" font-size="14.00">(None, 32, 3, 2400, 1800)</text>
</g>
<!-- 4631362976&#45;&gt;4527560968 -->
<g id="edge1" class="edge"><title>4631362976&#45;&gt;4527560968</title>
<path fill="none" stroke="black" d="M213.96,-1299.28C213.96,-1291.07 213.96,-1281.71 213.96,-1272.85"/>
<polygon fill="black" stroke="black" points="217.46,-1272.78 213.96,-1262.78 210.46,-1272.78 217.46,-1272.78"/>
</g>
<!-- 4351656680 -->
<g id="node3" class="node"><title>4351656680</title>
<polygon fill="#A63F1E" stroke="black" points="0,-1126.3 0,-1175.9 427.921,-1175.9 427.921,-1126.3 0,-1126.3"/>
<text text-anchor="middle" x="105.803" y="-1146.9" font-family="Times,serif" font-size="14.00">max_pooling3d_1: MaxPooling3D</text>
<polyline fill="none" stroke="black" points="211.607,-1126.3 211.607,-1175.9 "/>
<text text-anchor="middle" x="239.442" y="-1159.3" font-family="Times,serif" font-size="14.00">input:</text>
<polyline fill="none" stroke="black" points="211.607,-1151.1 267.278,-1151.1 "/>
<text text-anchor="middle" x="239.442" y="-1134.5" font-family="Times,serif" font-size="14.00">output:</text>
<polyline fill="none" stroke="black" points="267.278,-1126.3 267.278,-1175.9 "/>
<text text-anchor="middle" x="347.6" y="-1159.3" font-family="Times,serif" font-size="14.00">(None, 32, 3, 2400, 1800)</text>
<polyline fill="none" stroke="black" points="267.278,-1151.1 427.921,-1151.1 "/>
<text text-anchor="middle" x="347.6" y="-1134.5" font-family="Times,serif" font-size="14.00">(None, 32, 3, 599, 899)</text>
</g>
<!-- 4527560968&#45;&gt;4351656680 -->
<g id="edge2" class="edge"><title>4527560968&#45;&gt;4351656680</title>
<path fill="none" stroke="black" d="M213.96,-1212.68C213.96,-1204.47 213.96,-1195.11 213.96,-1186.25"/>
<polygon fill="black" stroke="black" points="217.46,-1186.18 213.96,-1176.18 210.46,-1186.18 217.46,-1186.18"/>
</g>
<!-- 4631653568 -->
<g id="node4" class="node"><title>4631653568</title>
<polygon fill="#F4AA00" stroke="black" points="49.7791,-1039.7 49.7791,-1089.3 378.142,-1089.3 378.142,-1039.7 49.7791,-1039.7"/>
<text text-anchor="middle" x="112.803" y="-1060.3" font-family="Times,serif" font-size="14.00">conv3d_2: Conv3D</text>
<polyline fill="none" stroke="black" points="175.827,-1039.7 175.827,-1089.3 "/>
<text text-anchor="middle" x="203.663" y="-1072.7" font-family="Times,serif" font-size="14.00">input:</text>
<polyline fill="none" stroke="black" points="175.827,-1064.5 231.499,-1064.5 "/>
<text text-anchor="middle" x="203.663" y="-1047.9" font-family="Times,serif" font-size="14.00">output:</text>
<polyline fill="none" stroke="black" points="231.499,-1039.7 231.499,-1089.3 "/>
<text text-anchor="middle" x="304.821" y="-1072.7" font-family="Times,serif" font-size="14.00">(None, 32, 3, 599, 899)</text>
<polyline fill="none" stroke="black" points="231.499,-1064.5 378.142,-1064.5 "/>
<text text-anchor="middle" x="304.821" y="-1047.9" font-family="Times,serif" font-size="14.00">(None, 64, 3, 300, 450)</text>
</g>
<!-- 4351656680&#45;&gt;4631653568 -->
<g id="edge3" class="edge"><title>4351656680&#45;&gt;4631653568</title>
<path fill="none" stroke="black" d="M213.96,-1126.08C213.96,-1117.87 213.96,-1108.51 213.96,-1099.65"/>
<polygon fill="black" stroke="black" points="217.46,-1099.58 213.96,-1089.58 210.46,-1099.58 217.46,-1099.58"/>
</g>
<!-- 4631653680 -->
<g id="node5" class="node"><title>4631653680</title>
<polygon fill="#A63F1E" stroke="black" points="7,-953.1 7,-1002.7 420.921,-1002.7 420.921,-953.1 7,-953.1"/>
<text text-anchor="middle" x="112.803" y="-973.7" font-family="Times,serif" font-size="14.00">max_pooling3d_2: MaxPooling3D</text>
<polyline fill="none" stroke="black" points="218.607,-953.1 218.607,-1002.7 "/>
<text text-anchor="middle" x="246.442" y="-986.1" font-family="Times,serif" font-size="14.00">input:</text>
<polyline fill="none" stroke="black" points="218.607,-977.9 274.278,-977.9 "/>
<text text-anchor="middle" x="246.442" y="-961.3" font-family="Times,serif" font-size="14.00">output:</text>
<polyline fill="none" stroke="black" points="274.278,-953.1 274.278,-1002.7 "/>
<text text-anchor="middle" x="347.6" y="-986.1" font-family="Times,serif" font-size="14.00">(None, 64, 3, 300, 450)</text>
<polyline fill="none" stroke="black" points="274.278,-977.9 420.921,-977.9 "/>
<text text-anchor="middle" x="347.6" y="-961.3" font-family="Times,serif" font-size="14.00">(None, 64, 3, 149, 224)</text>
</g>
<!-- 4631653568&#45;&gt;4631653680 -->
<g id="edge4" class="edge"><title>4631653568&#45;&gt;4631653680</title>
<path fill="none" stroke="black" d="M213.96,-1039.48C213.96,-1031.27 213.96,-1021.91 213.96,-1013.05"/>
<polygon fill="black" stroke="black" points="217.46,-1012.98 213.96,-1002.98 210.46,-1012.98 217.46,-1012.98"/>
</g>
<!-- 4631831048 -->
<g id="node6" class="node"><title>4631831048</title>
<polygon fill="#F4AA00" stroke="black" points="49.7791,-866.5 49.7791,-916.1 378.142,-916.1 378.142,-866.5 49.7791,-866.5"/>
<text text-anchor="middle" x="112.803" y="-887.1" font-family="Times,serif" font-size="14.00">conv3d_3: Conv3D</text>
<polyline fill="none" stroke="black" points="175.827,-866.5 175.827,-916.1 "/>
<text text-anchor="middle" x="203.663" y="-899.5" font-family="Times,serif" font-size="14.00">input:</text>
<polyline fill="none" stroke="black" points="175.827,-891.3 231.499,-891.3 "/>
<text text-anchor="middle" x="203.663" y="-874.7" font-family="Times,serif" font-size="14.00">output:</text>
<polyline fill="none" stroke="black" points="231.499,-866.5 231.499,-916.1 "/>
<text text-anchor="middle" x="304.821" y="-899.5" font-family="Times,serif" font-size="14.00">(None, 64, 3, 149, 224)</text>
<polyline fill="none" stroke="black" points="231.499,-891.3 378.142,-891.3 "/>
<text text-anchor="middle" x="304.821" y="-874.7" font-family="Times,serif" font-size="14.00">(None, 128, 3, 75, 112)</text>
</g>
<!-- 4631653680&#45;&gt;4631831048 -->
<g id="edge5" class="edge"><title>4631653680&#45;&gt;4631831048</title>
<path fill="none" stroke="black" d="M213.96,-952.883C213.96,-944.667 213.96,-935.312 213.96,-926.452"/>
<polygon fill="black" stroke="black" points="217.46,-926.377 213.96,-916.377 210.46,-926.377 217.46,-926.377"/>
</g>
<!-- 4631875424 -->
<g id="node7" class="node"><title>4631875424</title>
<polygon fill="#A63F1E" stroke="black" points="7,-779.9 7,-829.5 420.921,-829.5 420.921,-779.9 7,-779.9"/>
<text text-anchor="middle" x="112.803" y="-800.5" font-family="Times,serif" font-size="14.00">max_pooling3d_3: MaxPooling3D</text>
<polyline fill="none" stroke="black" points="218.607,-779.9 218.607,-829.5 "/>
<text text-anchor="middle" x="246.442" y="-812.9" font-family="Times,serif" font-size="14.00">input:</text>
<polyline fill="none" stroke="black" points="218.607,-804.7 274.278,-804.7 "/>
<text text-anchor="middle" x="246.442" y="-788.1" font-family="Times,serif" font-size="14.00">output:</text>
<polyline fill="none" stroke="black" points="274.278,-779.9 274.278,-829.5 "/>
<text text-anchor="middle" x="347.6" y="-812.9" font-family="Times,serif" font-size="14.00">(None, 128, 3, 75, 112)</text>
<polyline fill="none" stroke="black" points="274.278,-804.7 420.921,-804.7 "/>
<text text-anchor="middle" x="347.6" y="-788.1" font-family="Times,serif" font-size="14.00">(None, 128, 3, 37, 55)</text>
</g>
<!-- 4631831048&#45;&gt;4631875424 -->
<g id="edge6" class="edge"><title>4631831048&#45;&gt;4631875424</title>
<path fill="none" stroke="black" d="M213.96,-866.283C213.96,-858.067 213.96,-848.712 213.96,-839.852"/>
<polygon fill="black" stroke="black" points="217.46,-839.777 213.96,-829.777 210.46,-839.777 217.46,-839.777"/>
</g>
<!-- 4632054192 -->
<g id="node8" class="node"><title>4632054192</title>
<polygon fill="#F4AA00" stroke="black" points="53.2791,-693.3 53.2791,-742.9 374.642,-742.9 374.642,-693.3 53.2791,-693.3"/>
<text text-anchor="middle" x="116.303" y="-713.9" font-family="Times,serif" font-size="14.00">conv3d_4: Conv3D</text>
<polyline fill="none" stroke="black" points="179.327,-693.3 179.327,-742.9 "/>
<text text-anchor="middle" x="207.163" y="-726.3" font-family="Times,serif" font-size="14.00">input:</text>
<polyline fill="none" stroke="black" points="179.327,-718.1 234.999,-718.1 "/>
<text text-anchor="middle" x="207.163" y="-701.5" font-family="Times,serif" font-size="14.00">output:</text>
<polyline fill="none" stroke="black" points="234.999,-693.3 234.999,-742.9 "/>
<text text-anchor="middle" x="304.821" y="-726.3" font-family="Times,serif" font-size="14.00">(None, 128, 3, 37, 55)</text>
<polyline fill="none" stroke="black" points="234.999,-718.1 374.642,-718.1 "/>
<text text-anchor="middle" x="304.821" y="-701.5" font-family="Times,serif" font-size="14.00">(None, 512, 1, 19, 28)</text>
</g>
<!-- 4631875424&#45;&gt;4632054192 -->
<g id="edge7" class="edge"><title>4631875424&#45;&gt;4632054192</title>
<path fill="none" stroke="black" d="M213.96,-779.683C213.96,-771.467 213.96,-762.112 213.96,-753.252"/>
<polygon fill="black" stroke="black" points="217.46,-753.177 213.96,-743.177 210.46,-753.177 217.46,-753.177"/>
</g>
<!-- 4632053240 -->
<g id="node9" class="node"><title>4632053240</title>
<polygon fill="#A63F1E" stroke="black" points="10.5,-606.7 10.5,-656.3 417.421,-656.3 417.421,-606.7 10.5,-606.7"/>
<text text-anchor="middle" x="116.303" y="-627.3" font-family="Times,serif" font-size="14.00">max_pooling3d_4: MaxPooling3D</text>
<polyline fill="none" stroke="black" points="222.107,-606.7 222.107,-656.3 "/>
<text text-anchor="middle" x="249.942" y="-639.7" font-family="Times,serif" font-size="14.00">input:</text>
<polyline fill="none" stroke="black" points="222.107,-631.5 277.778,-631.5 "/>
<text text-anchor="middle" x="249.942" y="-614.9" font-family="Times,serif" font-size="14.00">output:</text>
<polyline fill="none" stroke="black" points="277.778,-606.7 277.778,-656.3 "/>
<text text-anchor="middle" x="347.6" y="-639.7" font-family="Times,serif" font-size="14.00">(None, 512, 1, 19, 28)</text>
<polyline fill="none" stroke="black" points="277.778,-631.5 417.421,-631.5 "/>
<text text-anchor="middle" x="347.6" y="-614.9" font-family="Times,serif" font-size="14.00">(None, 512, 1, 9, 13)</text>
</g>
<!-- 4632054192&#45;&gt;4632053240 -->
<g id="edge8" class="edge"><title>4632054192&#45;&gt;4632053240</title>
<path fill="none" stroke="black" d="M213.96,-693.083C213.96,-684.867 213.96,-675.512 213.96,-666.652"/>
<polygon fill="black" stroke="black" points="217.46,-666.577 213.96,-656.577 210.46,-666.577 217.46,-666.577"/>
</g>
<!-- 4632120400 -->
<g id="node10" class="node"><title>4632120400</title>
<polygon fill="#F4AA00" stroke="black" points="56.7791,-520.1 56.7791,-569.7 371.142,-569.7 371.142,-520.1 56.7791,-520.1"/>
<text text-anchor="middle" x="119.803" y="-540.7" font-family="Times,serif" font-size="14.00">conv3d_5: Conv3D</text>
<polyline fill="none" stroke="black" points="182.827,-520.1 182.827,-569.7 "/>
<text text-anchor="middle" x="210.663" y="-553.1" font-family="Times,serif" font-size="14.00">input:</text>
<polyline fill="none" stroke="black" points="182.827,-544.9 238.499,-544.9 "/>
<text text-anchor="middle" x="210.663" y="-528.3" font-family="Times,serif" font-size="14.00">output:</text>
<polyline fill="none" stroke="black" points="238.499,-520.1 238.499,-569.7 "/>
<text text-anchor="middle" x="304.821" y="-553.1" font-family="Times,serif" font-size="14.00">(None, 512, 1, 9, 13)</text>
<polyline fill="none" stroke="black" points="238.499,-544.9 371.142,-544.9 "/>
<text text-anchor="middle" x="304.821" y="-528.3" font-family="Times,serif" font-size="14.00">(None, 1024, 1, 3, 5)</text>
</g>
<!-- 4632053240&#45;&gt;4632120400 -->
<g id="edge9" class="edge"><title>4632053240&#45;&gt;4632120400</title>
<path fill="none" stroke="black" d="M213.96,-606.483C213.96,-598.267 213.96,-588.912 213.96,-580.052"/>
<polygon fill="black" stroke="black" points="217.46,-579.977 213.96,-569.977 210.46,-579.977 217.46,-579.977"/>
</g>
<!-- 4632385240 -->
<g id="node11" class="node"><title>4632385240</title>
<polygon fill="#A63F1E" stroke="black" points="14,-433.5 14,-483.1 413.921,-483.1 413.921,-433.5 14,-433.5"/>
<text text-anchor="middle" x="119.803" y="-454.1" font-family="Times,serif" font-size="14.00">max_pooling3d_5: MaxPooling3D</text>
<polyline fill="none" stroke="black" points="225.607,-433.5 225.607,-483.1 "/>
<text text-anchor="middle" x="253.442" y="-466.5" font-family="Times,serif" font-size="14.00">input:</text>
<polyline fill="none" stroke="black" points="225.607,-458.3 281.278,-458.3 "/>
<text text-anchor="middle" x="253.442" y="-441.7" font-family="Times,serif" font-size="14.00">output:</text>
<polyline fill="none" stroke="black" points="281.278,-433.5 281.278,-483.1 "/>
<text text-anchor="middle" x="347.6" y="-466.5" font-family="Times,serif" font-size="14.00">(None, 1024, 1, 3, 5)</text>
<polyline fill="none" stroke="black" points="281.278,-458.3 413.921,-458.3 "/>
<text text-anchor="middle" x="347.6" y="-441.7" font-family="Times,serif" font-size="14.00">(None, 1024, 1, 1, 1)</text>
</g>
<!-- 4632120400&#45;&gt;4632385240 -->
<g id="edge10" class="edge"><title>4632120400&#45;&gt;4632385240</title>
<path fill="none" stroke="black" d="M213.96,-519.883C213.96,-511.667 213.96,-502.312 213.96,-493.452"/>
<polygon fill="black" stroke="black" points="217.46,-493.377 213.96,-483.377 210.46,-493.377 217.46,-493.377"/>
</g>
<!-- 4633973032 -->
<g id="node12" class="node"><title>4633973032</title>
<polygon fill="#D77600" stroke="black" points="70.7854,-346.9 70.7854,-396.5 357.135,-396.5 357.135,-346.9 70.7854,-346.9"/>
<text text-anchor="middle" x="119.803" y="-367.5" font-family="Times,serif" font-size="14.00">flatten: Flatten</text>
<polyline fill="none" stroke="black" points="168.821,-346.9 168.821,-396.5 "/>
<text text-anchor="middle" x="196.657" y="-379.9" font-family="Times,serif" font-size="14.00">input:</text>
<polyline fill="none" stroke="black" points="168.821,-371.7 224.493,-371.7 "/>
<text text-anchor="middle" x="196.657" y="-355.1" font-family="Times,serif" font-size="14.00">output:</text>
<polyline fill="none" stroke="black" points="224.493,-346.9 224.493,-396.5 "/>
<text text-anchor="middle" x="290.814" y="-379.9" font-family="Times,serif" font-size="14.00">(None, 1024, 1, 1, 1)</text>
<polyline fill="none" stroke="black" points="224.493,-371.7 357.135,-371.7 "/>
<text text-anchor="middle" x="290.814" y="-355.1" font-family="Times,serif" font-size="14.00">(None, 1024)</text>
</g>
<!-- 4632385240&#45;&gt;4633973032 -->
<g id="edge11" class="edge"><title>4632385240&#45;&gt;4633973032</title>
<path fill="none" stroke="black" d="M213.96,-433.283C213.96,-425.067 213.96,-415.712 213.96,-406.852"/>
<polygon fill="black" stroke="black" points="217.46,-406.777 213.96,-396.777 210.46,-406.777 217.46,-406.777"/>
</g>
<!-- 4633974320 -->
<g id="node13" class="node"><title>4633974320</title>
<polygon fill="#D77600" stroke="black" points="77.0035,-260.3 77.0035,-309.9 350.917,-309.9 350.917,-260.3 77.0035,-260.3"/>
<text text-anchor="middle" x="140.803" y="-280.9" font-family="Times,serif" font-size="14.00">dropout_1: Dropout</text>
<polyline fill="none" stroke="black" points="204.603,-260.3 204.603,-309.9 "/>
<text text-anchor="middle" x="232.439" y="-293.3" font-family="Times,serif" font-size="14.00">input:</text>
<polyline fill="none" stroke="black" points="204.603,-285.1 260.275,-285.1 "/>
<text text-anchor="middle" x="232.439" y="-268.5" font-family="Times,serif" font-size="14.00">output:</text>
<polyline fill="none" stroke="black" points="260.275,-260.3 260.275,-309.9 "/>
<text text-anchor="middle" x="305.596" y="-293.3" font-family="Times,serif" font-size="14.00">(None, 1024)</text>
<polyline fill="none" stroke="black" points="260.275,-285.1 350.917,-285.1 "/>
<text text-anchor="middle" x="305.596" y="-268.5" font-family="Times,serif" font-size="14.00">(None, 1024)</text>
</g>
<!-- 4633973032&#45;&gt;4633974320 -->
<g id="edge12" class="edge"><title>4633973032&#45;&gt;4633974320</title>
<path fill="none" stroke="black" d="M213.96,-346.683C213.96,-338.467 213.96,-329.112 213.96,-320.252"/>
<polygon fill="black" stroke="black" points="217.46,-320.177 213.96,-310.177 210.46,-320.177 217.46,-320.177"/>
</g>
<!-- 4633974376 -->
<g id="node14" class="node"><title>4633974376</title>
<polygon fill="#D77600" stroke="black" points="88.6809,-173.7 88.6809,-223.3 339.24,-223.3 339.24,-173.7 88.6809,-173.7"/>
<text text-anchor="middle" x="140.803" y="-194.3" font-family="Times,serif" font-size="14.00">dense_1: Dense</text>
<polyline fill="none" stroke="black" points="192.926,-173.7 192.926,-223.3 "/>
<text text-anchor="middle" x="220.762" y="-206.7" font-family="Times,serif" font-size="14.00">input:</text>
<polyline fill="none" stroke="black" points="192.926,-198.5 248.597,-198.5 "/>
<text text-anchor="middle" x="220.762" y="-181.9" font-family="Times,serif" font-size="14.00">output:</text>
<polyline fill="none" stroke="black" points="248.597,-173.7 248.597,-223.3 "/>
<text text-anchor="middle" x="293.919" y="-206.7" font-family="Times,serif" font-size="14.00">(None, 1024)</text>
<polyline fill="none" stroke="black" points="248.597,-198.5 339.24,-198.5 "/>
<text text-anchor="middle" x="293.919" y="-181.9" font-family="Times,serif" font-size="14.00">(None, 2048)</text>
</g>
<!-- 4633974320&#45;&gt;4633974376 -->
<g id="edge13" class="edge"><title>4633974320&#45;&gt;4633974376</title>
<path fill="none" stroke="black" d="M213.96,-260.083C213.96,-251.867 213.96,-242.512 213.96,-233.652"/>
<polygon fill="black" stroke="black" points="217.46,-233.577 213.96,-223.577 210.46,-233.577 217.46,-233.577"/>
</g>
<!-- 4634286288 -->
<g id="node15" class="node"><title>4634286288</title>
<polygon fill="#D77600" stroke="black" points="77.0035,-87.1 77.0035,-136.7 350.917,-136.7 350.917,-87.1 77.0035,-87.1"/>
<text text-anchor="middle" x="140.803" y="-107.7" font-family="Times,serif" font-size="14.00">dropout_2: Dropout</text>
<polyline fill="none" stroke="black" points="204.603,-87.1 204.603,-136.7 "/>
<text text-anchor="middle" x="232.439" y="-120.1" font-family="Times,serif" font-size="14.00">input:</text>
<polyline fill="none" stroke="black" points="204.603,-111.9 260.275,-111.9 "/>
<text text-anchor="middle" x="232.439" y="-95.3" font-family="Times,serif" font-size="14.00">output:</text>
<polyline fill="none" stroke="black" points="260.275,-87.1 260.275,-136.7 "/>
<text text-anchor="middle" x="305.596" y="-120.1" font-family="Times,serif" font-size="14.00">(None, 2048)</text>
<polyline fill="none" stroke="black" points="260.275,-111.9 350.917,-111.9 "/>
<text text-anchor="middle" x="305.596" y="-95.3" font-family="Times,serif" font-size="14.00">(None, 2048)</text>
</g>
<!-- 4633974376&#45;&gt;4634286288 -->
<g id="edge14" class="edge"><title>4633974376&#45;&gt;4634286288</title>
<path fill="none" stroke="black" d="M213.96,-173.483C213.96,-165.267 213.96,-155.912 213.96,-147.052"/>
<polygon fill="black" stroke="black" points="217.46,-146.977 213.96,-136.977 210.46,-146.977 217.46,-146.977"/>
</g>
<!-- 4634330224 -->
<g id="node16" class="node"><title>4634330224</title>
<polygon fill="#D77600" stroke="black" points="88.6809,-0.5 88.6809,-50.1 339.24,-50.1 339.24,-0.5 88.6809,-0.5"/>
<text text-anchor="middle" x="140.803" y="-21.1" font-family="Times,serif" font-size="14.00">dense_2: Dense</text>
<polyline fill="none" stroke="black" points="192.926,-0.5 192.926,-50.1 "/>
<text text-anchor="middle" x="220.762" y="-33.5" font-family="Times,serif" font-size="14.00">input:</text>
<polyline fill="none" stroke="black" points="192.926,-25.3 248.597,-25.3 "/>
<text text-anchor="middle" x="220.762" y="-8.7" font-family="Times,serif" font-size="14.00">output:</text>
<polyline fill="none" stroke="black" points="248.597,-0.5 248.597,-50.1 "/>
<text text-anchor="middle" x="293.919" y="-33.5" font-family="Times,serif" font-size="14.00">(None, 2048)</text>
<polyline fill="none" stroke="black" points="248.597,-25.3 339.24,-25.3 "/>
<text text-anchor="middle" x="293.919" y="-8.7" font-family="Times,serif" font-size="14.00">(None, 10)</text>
</g>
<!-- 4634286288&#45;&gt;4634330224 -->
<g id="edge15" class="edge"><title>4634286288&#45;&gt;4634330224</title>
<path fill="none" stroke="black" d="M213.96,-86.8833C213.96,-78.6673 213.96,-69.3117 213.96,-60.4518"/>
<polygon fill="black" stroke="black" points="217.46,-60.3767 213.96,-50.3767 210.46,-60.3768 217.46,-60.3767"/>
</g>
</g>
</svg>
